<mxfile host="app.diagrams.net" agent="Mozilla/5.0 (Windows NT 10.0; Win64; x64; rv:132.0) Gecko/20100101 Firefox/132.0" version="24.8.4">
  <diagram id="yPxyJZ8AM_hMuL3Unpa9" name="complex gitflow">
    <mxGraphModel dx="992" dy="1378" grid="1" gridSize="10" guides="1" tooltips="1" connect="1" arrows="1" fold="1" page="1" pageScale="1" pageWidth="4681" pageHeight="3300" math="0" shadow="0">
      <root>
        <mxCell id="0" />
        <mxCell id="1" parent="0" />
        <mxCell id="fkbE9CXmydv-zeSzXHjK-11" style="edgeStyle=orthogonalEdgeStyle;rounded=0;orthogonalLoop=1;jettySize=auto;html=1;" edge="1" parent="1" source="fkbE9CXmydv-zeSzXHjK-1" target="fkbE9CXmydv-zeSzXHjK-2">
          <mxGeometry relative="1" as="geometry" />
        </mxCell>
        <mxCell id="fkbE9CXmydv-zeSzXHjK-1" value="&lt;font data-font-src=&quot;https://fonts.googleapis.com/css?family=JetBrains+Mono&quot; face=&quot;JetBrains Mono&quot;&gt;drawFireTruck()&lt;/font&gt;" style="rounded=1;whiteSpace=wrap;html=1;fontFamily=JetBrains Mono;" vertex="1" parent="1">
          <mxGeometry x="500" y="110" width="120" height="60" as="geometry" />
        </mxCell>
        <mxCell id="fkbE9CXmydv-zeSzXHjK-12" style="edgeStyle=orthogonalEdgeStyle;rounded=0;orthogonalLoop=1;jettySize=auto;html=1;" edge="1" parent="1" source="fkbE9CXmydv-zeSzXHjK-2" target="fkbE9CXmydv-zeSzXHjK-6">
          <mxGeometry relative="1" as="geometry">
            <Array as="points">
              <mxPoint x="560" y="320" />
              <mxPoint x="203" y="320" />
            </Array>
          </mxGeometry>
        </mxCell>
        <mxCell id="fkbE9CXmydv-zeSzXHjK-14" style="edgeStyle=orthogonalEdgeStyle;rounded=0;orthogonalLoop=1;jettySize=auto;html=1;entryX=0.5;entryY=0;entryDx=0;entryDy=0;" edge="1" parent="1" target="fkbE9CXmydv-zeSzXHjK-13">
          <mxGeometry relative="1" as="geometry">
            <mxPoint x="570" y="270" as="sourcePoint" />
            <Array as="points">
              <mxPoint x="560" y="270" />
              <mxPoint x="560" y="320" />
              <mxPoint x="500" y="320" />
            </Array>
          </mxGeometry>
        </mxCell>
        <mxCell id="fkbE9CXmydv-zeSzXHjK-16" style="edgeStyle=orthogonalEdgeStyle;rounded=0;orthogonalLoop=1;jettySize=auto;html=1;entryX=0.5;entryY=0;entryDx=0;entryDy=0;" edge="1" parent="1" target="fkbE9CXmydv-zeSzXHjK-15">
          <mxGeometry relative="1" as="geometry">
            <mxPoint x="610" y="280" as="sourcePoint" />
            <Array as="points">
              <mxPoint x="610" y="320" />
              <mxPoint x="700" y="320" />
              <mxPoint x="700" y="390" />
            </Array>
          </mxGeometry>
        </mxCell>
        <mxCell id="fkbE9CXmydv-zeSzXHjK-18" style="edgeStyle=orthogonalEdgeStyle;rounded=0;orthogonalLoop=1;jettySize=auto;html=1;" edge="1" parent="1" target="fkbE9CXmydv-zeSzXHjK-17">
          <mxGeometry relative="1" as="geometry">
            <mxPoint x="640" y="280" as="sourcePoint" />
            <Array as="points">
              <mxPoint x="640" y="320" />
              <mxPoint x="900" y="320" />
            </Array>
          </mxGeometry>
        </mxCell>
        <mxCell id="fkbE9CXmydv-zeSzXHjK-20" style="edgeStyle=orthogonalEdgeStyle;rounded=0;orthogonalLoop=1;jettySize=auto;html=1;" edge="1" parent="1" target="fkbE9CXmydv-zeSzXHjK-19">
          <mxGeometry relative="1" as="geometry">
            <mxPoint x="670" y="280" as="sourcePoint" />
            <Array as="points">
              <mxPoint x="670" y="320" />
              <mxPoint x="1100" y="320" />
            </Array>
          </mxGeometry>
        </mxCell>
        <mxCell id="fkbE9CXmydv-zeSzXHjK-2" value="T(car_pos, TRUCK_HEIGHT, 0)" style="rounded=1;whiteSpace=wrap;html=1;fontFamily=JetBrains Mono;" vertex="1" parent="1">
          <mxGeometry x="460" y="240" width="200" height="40" as="geometry" />
        </mxCell>
        <mxCell id="fkbE9CXmydv-zeSzXHjK-22" style="edgeStyle=orthogonalEdgeStyle;rounded=0;orthogonalLoop=1;jettySize=auto;html=1;entryX=0.5;entryY=0;entryDx=0;entryDy=0;" edge="1" parent="1" source="fkbE9CXmydv-zeSzXHjK-6" target="fkbE9CXmydv-zeSzXHjK-21">
          <mxGeometry relative="1" as="geometry" />
        </mxCell>
        <mxCell id="fkbE9CXmydv-zeSzXHjK-6" value="S(TRUCK_LENGTH, TRUCK_HEIGHT, TRUCK_ WIDTH)" style="rounded=1;whiteSpace=wrap;html=1;" vertex="1" parent="1">
          <mxGeometry x="40" y="400" width="325" height="40" as="geometry" />
        </mxCell>
        <mxCell id="fkbE9CXmydv-zeSzXHjK-7" value="&lt;div style=&quot;font-size: 14px;&quot; align=&quot;left&quot;&gt;&lt;font face=&quot;JetBrains Mono&quot; style=&quot;font-size: 14px;&quot;&gt;TRUCK_LENGTH - comprimento do cami達o&lt;/font&gt;&lt;font face=&quot;JetBrains Mono&quot; style=&quot;font-size: 14px;&quot;&gt;&lt;br&gt;TRUCK_HEIGHT - altura do cami達o&lt;br&gt;&lt;/font&gt;&lt;/div&gt;&lt;div style=&quot;font-size: 14px;&quot; align=&quot;left&quot;&gt;&lt;font face=&quot;JetBrains Mono&quot; style=&quot;font-size: 14px;&quot;&gt;TRUCK_WIDTH - largura do cami達o&lt;/font&gt;&lt;/div&gt;&lt;div style=&quot;font-size: 14px;&quot; align=&quot;left&quot;&gt;&lt;font face=&quot;c2vu0L9A7RrEWmxkIA-X&quot; style=&quot;font-size: 14px;&quot;&gt;&lt;br&gt;&lt;/font&gt;&lt;/div&gt;&lt;div style=&quot;font-size: 14px;&quot; align=&quot;left&quot;&gt;&lt;font face=&quot;JetBrains Mono&quot; style=&quot;font-size: 14px;&quot;&gt;car_pos - deslocamento horizontal do cami達o&lt;/font&gt;&lt;/div&gt;" style="text;html=1;align=left;verticalAlign=middle;resizable=0;points=[];autosize=1;strokeColor=none;fillColor=none;" vertex="1" parent="1">
          <mxGeometry y="25" width="380" height="100" as="geometry" />
        </mxCell>
        <mxCell id="fkbE9CXmydv-zeSzXHjK-13" value="&lt;font face=&quot;JetBrains Mono&quot;&gt;drawWheels()&lt;/font&gt;" style="rounded=1;whiteSpace=wrap;html=1;" vertex="1" parent="1">
          <mxGeometry x="440" y="390" width="120" height="60" as="geometry" />
        </mxCell>
        <mxCell id="fkbE9CXmydv-zeSzXHjK-15" value="&lt;div&gt;&lt;font face=&quot;JetBrains Mono&quot;&gt;drawBumper()&lt;/font&gt;&lt;/div&gt;" style="rounded=1;whiteSpace=wrap;html=1;" vertex="1" parent="1">
          <mxGeometry x="640" y="390" width="120" height="60" as="geometry" />
        </mxCell>
        <mxCell id="fkbE9CXmydv-zeSzXHjK-17" value="&lt;div&gt;&lt;font face=&quot;JetBrains Mono&quot;&gt;drawCabin()&lt;/font&gt;&lt;/div&gt;" style="rounded=1;whiteSpace=wrap;html=1;" vertex="1" parent="1">
          <mxGeometry x="840" y="390" width="120" height="60" as="geometry" />
        </mxCell>
        <mxCell id="fkbE9CXmydv-zeSzXHjK-19" value="&lt;font face=&quot;JetBrains Mono&quot;&gt;drawCargo()&lt;/font&gt;" style="rounded=1;whiteSpace=wrap;html=1;" vertex="1" parent="1">
          <mxGeometry x="1040" y="390" width="120" height="60" as="geometry" />
        </mxCell>
        <mxCell id="fkbE9CXmydv-zeSzXHjK-21" value="CUBE" style="rounded=1;whiteSpace=wrap;html=1;" vertex="1" parent="1">
          <mxGeometry x="146.25" y="520" width="112.5" height="40" as="geometry" />
        </mxCell>
        <mxCell id="fkbE9CXmydv-zeSzXHjK-25" style="edgeStyle=orthogonalEdgeStyle;rounded=0;orthogonalLoop=1;jettySize=auto;html=1;entryX=0.5;entryY=0;entryDx=0;entryDy=0;" edge="1" parent="1">
          <mxGeometry relative="1" as="geometry">
            <mxPoint x="662.3999999999996" y="790" as="sourcePoint" />
            <mxPoint x="662.5" y="860" as="targetPoint" />
          </mxGeometry>
        </mxCell>
        <mxCell id="fkbE9CXmydv-zeSzXHjK-31" value="4x" style="edgeLabel;html=1;align=center;verticalAlign=middle;resizable=0;points=[];" vertex="1" connectable="0" parent="fkbE9CXmydv-zeSzXHjK-25">
          <mxGeometry x="-0.0381" relative="1" as="geometry">
            <mxPoint as="offset" />
          </mxGeometry>
        </mxCell>
        <mxCell id="fkbE9CXmydv-zeSzXHjK-23" value="&lt;div&gt;&lt;font face=&quot;JetBrains Mono&quot;&gt;drawWheels()&lt;/font&gt;&lt;/div&gt;" style="rounded=1;whiteSpace=wrap;html=1;" vertex="1" parent="1">
          <mxGeometry x="602.5" y="720" width="120" height="60" as="geometry" />
        </mxCell>
        <mxCell id="fkbE9CXmydv-zeSzXHjK-30" style="edgeStyle=orthogonalEdgeStyle;rounded=0;orthogonalLoop=1;jettySize=auto;html=1;entryX=0.5;entryY=0;entryDx=0;entryDy=0;" edge="1" parent="1">
          <mxGeometry relative="1" as="geometry">
            <mxPoint x="317.5" y="1060" as="sourcePoint" />
            <mxPoint x="317.5" y="1100" as="targetPoint" />
          </mxGeometry>
        </mxCell>
        <mxCell id="fkbE9CXmydv-zeSzXHjK-34" value="&lt;font face=&quot;JetBrains Mono&quot;&gt;S(WHEEL_RADIUS, WHEEL_RADIUS, WHEEL_WIDTH)&lt;/font&gt;" style="rounded=0;whiteSpace=wrap;html=1;" vertex="1" parent="1">
          <mxGeometry x="160" y="1020" width="320" height="40" as="geometry" />
        </mxCell>
        <mxCell id="fkbE9CXmydv-zeSzXHjK-37" style="edgeStyle=orthogonalEdgeStyle;rounded=0;orthogonalLoop=1;jettySize=auto;html=1;entryX=0.5;entryY=0;entryDx=0;entryDy=0;" edge="1" parent="1" source="fkbE9CXmydv-zeSzXHjK-35" target="fkbE9CXmydv-zeSzXHjK-36">
          <mxGeometry relative="1" as="geometry" />
        </mxCell>
        <mxCell id="fkbE9CXmydv-zeSzXHjK-35" value="&lt;font face=&quot;JetBrains Mono&quot;&gt;Rx(90)&lt;/font&gt;" style="rounded=0;whiteSpace=wrap;html=1;" vertex="1" parent="1">
          <mxGeometry x="257.5" y="1100" width="120" height="40" as="geometry" />
        </mxCell>
        <mxCell id="fkbE9CXmydv-zeSzXHjK-39" style="edgeStyle=orthogonalEdgeStyle;rounded=0;orthogonalLoop=1;jettySize=auto;html=1;entryX=0.5;entryY=0;entryDx=0;entryDy=0;" edge="1" parent="1" source="fkbE9CXmydv-zeSzXHjK-36" target="fkbE9CXmydv-zeSzXHjK-38">
          <mxGeometry relative="1" as="geometry" />
        </mxCell>
        <mxCell id="fkbE9CXmydv-zeSzXHjK-36" value="&lt;font face=&quot;JetBrains Mono&quot;&gt;Ry(car_pos)&lt;/font&gt;" style="rounded=0;whiteSpace=wrap;html=1;" vertex="1" parent="1">
          <mxGeometry x="257.5" y="1180" width="120" height="40" as="geometry" />
        </mxCell>
        <mxCell id="fkbE9CXmydv-zeSzXHjK-38" value="&lt;font face=&quot;JetBrains Mono&quot;&gt;TORUS&lt;/font&gt;" style="rounded=1;whiteSpace=wrap;html=1;" vertex="1" parent="1">
          <mxGeometry x="257.5" y="1260" width="120" height="40" as="geometry" />
        </mxCell>
        <mxCell id="fkbE9CXmydv-zeSzXHjK-49" style="edgeStyle=orthogonalEdgeStyle;rounded=0;orthogonalLoop=1;jettySize=auto;html=1;entryX=0.5;entryY=0;entryDx=0;entryDy=0;" edge="1" parent="1" source="fkbE9CXmydv-zeSzXHjK-40" target="fkbE9CXmydv-zeSzXHjK-48">
          <mxGeometry relative="1" as="geometry" />
        </mxCell>
        <mxCell id="fkbE9CXmydv-zeSzXHjK-54" value="" style="edgeStyle=orthogonalEdgeStyle;rounded=0;orthogonalLoop=1;jettySize=auto;html=1;" edge="1" parent="1" source="fkbE9CXmydv-zeSzXHjK-40">
          <mxGeometry relative="1" as="geometry">
            <mxPoint x="1007.5" y="1140" as="targetPoint" />
          </mxGeometry>
        </mxCell>
        <mxCell id="fkbE9CXmydv-zeSzXHjK-56" value="" style="edgeStyle=orthogonalEdgeStyle;rounded=0;orthogonalLoop=1;jettySize=auto;html=1;" edge="1" parent="1" source="fkbE9CXmydv-zeSzXHjK-40">
          <mxGeometry relative="1" as="geometry">
            <mxPoint x="997.5" y="1140" as="targetPoint" />
          </mxGeometry>
        </mxCell>
        <mxCell id="fkbE9CXmydv-zeSzXHjK-40" value="&lt;font face=&quot;JetBrains Mono&quot;&gt;Rx(90)&lt;/font&gt;" style="rounded=0;whiteSpace=wrap;html=1;" vertex="1" parent="1">
          <mxGeometry x="937.5" y="1020" width="120" height="40" as="geometry" />
        </mxCell>
        <mxCell id="fkbE9CXmydv-zeSzXHjK-45" style="edgeStyle=orthogonalEdgeStyle;rounded=0;orthogonalLoop=1;jettySize=auto;html=1;entryX=0.5;entryY=0;entryDx=0;entryDy=0;" edge="1" parent="1" source="fkbE9CXmydv-zeSzXHjK-33" target="fkbE9CXmydv-zeSzXHjK-40">
          <mxGeometry relative="1" as="geometry">
            <Array as="points">
              <mxPoint x="662" y="960" />
              <mxPoint x="998" y="960" />
              <mxPoint x="998" y="990" />
            </Array>
          </mxGeometry>
        </mxCell>
        <mxCell id="fkbE9CXmydv-zeSzXHjK-47" style="edgeStyle=orthogonalEdgeStyle;rounded=0;orthogonalLoop=1;jettySize=auto;html=1;" edge="1" parent="1" source="fkbE9CXmydv-zeSzXHjK-33" target="fkbE9CXmydv-zeSzXHjK-34">
          <mxGeometry relative="1" as="geometry" />
        </mxCell>
        <mxCell id="fkbE9CXmydv-zeSzXHjK-92" style="edgeStyle=orthogonalEdgeStyle;rounded=0;orthogonalLoop=1;jettySize=auto;html=1;" edge="1" parent="1" source="fkbE9CXmydv-zeSzXHjK-33" target="fkbE9CXmydv-zeSzXHjK-91">
          <mxGeometry relative="1" as="geometry">
            <Array as="points">
              <mxPoint x="663" y="960" />
              <mxPoint x="1825" y="960" />
            </Array>
          </mxGeometry>
        </mxCell>
        <mxCell id="fkbE9CXmydv-zeSzXHjK-33" value="&lt;font face=&quot;JetBrains Mono&quot;&gt;T(TRUCK_LENGTH/3)*j, &lt;span style=&quot;white-space: pre;&quot;&gt;-&lt;/span&gt;&lt;span style=&quot;white-space: pre;&quot;&gt;TRUCK_HEIGHT&lt;/span&gt;&lt;span style=&quot;white-space: pre;&quot;&gt;/&lt;/span&gt;&lt;span style=&quot;white-space: pre;&quot;&gt;3&lt;/span&gt;, ((TRUCK_WIDTH+WHEEL_WIDTH/2)/2)*i&lt;/font&gt;)" style="rounded=0;whiteSpace=wrap;html=1;" vertex="1" parent="1">
          <mxGeometry x="397.5" y="860" width="530" height="40" as="geometry" />
        </mxCell>
        <mxCell id="fkbE9CXmydv-zeSzXHjK-51" style="edgeStyle=orthogonalEdgeStyle;rounded=0;orthogonalLoop=1;jettySize=auto;html=1;" edge="1" parent="1" source="fkbE9CXmydv-zeSzXHjK-48" target="fkbE9CXmydv-zeSzXHjK-50">
          <mxGeometry relative="1" as="geometry">
            <Array as="points">
              <mxPoint x="998" y="1180" />
              <mxPoint x="705" y="1180" />
            </Array>
          </mxGeometry>
        </mxCell>
        <mxCell id="fkbE9CXmydv-zeSzXHjK-64" style="edgeStyle=orthogonalEdgeStyle;rounded=0;orthogonalLoop=1;jettySize=auto;html=1;entryX=0.5;entryY=0;entryDx=0;entryDy=0;" edge="1" parent="1" source="fkbE9CXmydv-zeSzXHjK-48" target="fkbE9CXmydv-zeSzXHjK-61">
          <mxGeometry relative="1" as="geometry" />
        </mxCell>
        <mxCell id="fkbE9CXmydv-zeSzXHjK-66" value="&lt;font face=&quot;JetBrains Mono&quot;&gt;if (i == -1)&lt;/font&gt;" style="edgeLabel;html=1;align=center;verticalAlign=middle;resizable=0;points=[];" vertex="1" connectable="0" parent="fkbE9CXmydv-zeSzXHjK-64">
          <mxGeometry x="0.6793" y="1" relative="1" as="geometry">
            <mxPoint x="-1" y="7" as="offset" />
          </mxGeometry>
        </mxCell>
        <mxCell id="fkbE9CXmydv-zeSzXHjK-82" style="edgeStyle=orthogonalEdgeStyle;rounded=0;orthogonalLoop=1;jettySize=auto;html=1;" edge="1" parent="1" source="fkbE9CXmydv-zeSzXHjK-48" target="fkbE9CXmydv-zeSzXHjK-81">
          <mxGeometry relative="1" as="geometry">
            <Array as="points">
              <mxPoint x="998" y="1180" />
              <mxPoint x="1420" y="1180" />
            </Array>
          </mxGeometry>
        </mxCell>
        <mxCell id="fkbE9CXmydv-zeSzXHjK-83" value="&lt;font face=&quot;JetBrains Mono&quot;&gt;if(i == -1 &amp;amp;&amp;amp; j == 1)&lt;/font&gt;" style="edgeLabel;html=1;align=center;verticalAlign=middle;resizable=0;points=[];" vertex="1" connectable="0" parent="fkbE9CXmydv-zeSzXHjK-82">
          <mxGeometry x="0.8612" y="1" relative="1" as="geometry">
            <mxPoint x="-1" y="13" as="offset" />
          </mxGeometry>
        </mxCell>
        <mxCell id="fkbE9CXmydv-zeSzXHjK-48" value="&lt;font face=&quot;JetBrains Mono&quot;&gt;T(0, - i * (WHEEL_RADIUS/4, 0)&lt;/font&gt;" style="rounded=0;whiteSpace=wrap;html=1;" vertex="1" parent="1">
          <mxGeometry x="880" y="1100" width="235" height="40" as="geometry" />
        </mxCell>
        <mxCell id="fkbE9CXmydv-zeSzXHjK-59" style="edgeStyle=orthogonalEdgeStyle;rounded=0;orthogonalLoop=1;jettySize=auto;html=1;" edge="1" parent="1" source="fkbE9CXmydv-zeSzXHjK-50" target="fkbE9CXmydv-zeSzXHjK-58">
          <mxGeometry relative="1" as="geometry" />
        </mxCell>
        <mxCell id="fkbE9CXmydv-zeSzXHjK-50" value="&lt;font face=&quot;JetBrains Mono&quot;&gt;S (WHEEL_RADIUS * 1.5, WHEEL_WIDTH * 0.5, WHEEL_RADIUS * 1.5)&lt;/font&gt;" style="rounded=0;whiteSpace=wrap;html=1;" vertex="1" parent="1">
          <mxGeometry x="480" y="1220" width="450" height="40" as="geometry" />
        </mxCell>
        <mxCell id="fkbE9CXmydv-zeSzXHjK-58" value="&lt;font face=&quot;JetBrains Mono&quot;&gt;CYLINDER&lt;/font&gt;" style="rounded=1;whiteSpace=wrap;html=1;" vertex="1" parent="1">
          <mxGeometry x="645" y="1300" width="120" height="40" as="geometry" />
        </mxCell>
        <mxCell id="fkbE9CXmydv-zeSzXHjK-65" style="edgeStyle=orthogonalEdgeStyle;rounded=0;orthogonalLoop=1;jettySize=auto;html=1;entryX=0.5;entryY=0;entryDx=0;entryDy=0;" edge="1" parent="1" source="fkbE9CXmydv-zeSzXHjK-61" target="fkbE9CXmydv-zeSzXHjK-63">
          <mxGeometry relative="1" as="geometry" />
        </mxCell>
        <mxCell id="fkbE9CXmydv-zeSzXHjK-61" value="&lt;font face=&quot;JetBrains Mono&quot;&gt;T (0, TRUCK_WIDTH/2, 0)&lt;/font&gt;" style="rounded=0;whiteSpace=wrap;html=1;" vertex="1" parent="1">
          <mxGeometry x="996.2399999999998" y="1220" width="170" height="40" as="geometry" />
        </mxCell>
        <mxCell id="fkbE9CXmydv-zeSzXHjK-69" style="edgeStyle=orthogonalEdgeStyle;rounded=0;orthogonalLoop=1;jettySize=auto;html=1;entryX=0.5;entryY=0;entryDx=0;entryDy=0;" edge="1" parent="1" source="fkbE9CXmydv-zeSzXHjK-63" target="fkbE9CXmydv-zeSzXHjK-68">
          <mxGeometry relative="1" as="geometry" />
        </mxCell>
        <mxCell id="fkbE9CXmydv-zeSzXHjK-63" value="&lt;font face=&quot;JetBrains Mono&quot;&gt;S (WHEEL_RADIUS * 0.2, WHEEL_WIDTH * 0.38, WHEEL_RADIUS *0.2)&lt;/font&gt;" style="rounded=0;whiteSpace=wrap;html=1;" vertex="1" parent="1">
          <mxGeometry x="921.24" y="1300" width="320" height="40" as="geometry" />
        </mxCell>
        <mxCell id="fkbE9CXmydv-zeSzXHjK-72" style="edgeStyle=orthogonalEdgeStyle;rounded=0;orthogonalLoop=1;jettySize=auto;html=1;" edge="1" parent="1" source="fkbE9CXmydv-zeSzXHjK-68" target="fkbE9CXmydv-zeSzXHjK-70">
          <mxGeometry relative="1" as="geometry" />
        </mxCell>
        <mxCell id="fkbE9CXmydv-zeSzXHjK-68" value="&lt;div&gt;&lt;font face=&quot;JetBrains Mono&quot;&gt;CYLINDER&lt;/font&gt;&lt;/div&gt;" style="rounded=1;whiteSpace=wrap;html=1;" vertex="1" parent="1">
          <mxGeometry x="1021.2399999999998" y="1380" width="120" height="40" as="geometry" />
        </mxCell>
        <mxCell id="fkbE9CXmydv-zeSzXHjK-76" style="edgeStyle=orthogonalEdgeStyle;rounded=0;orthogonalLoop=1;jettySize=auto;html=1;" edge="1" parent="1" source="fkbE9CXmydv-zeSzXHjK-70" target="fkbE9CXmydv-zeSzXHjK-74">
          <mxGeometry relative="1" as="geometry" />
        </mxCell>
        <mxCell id="fkbE9CXmydv-zeSzXHjK-78" value="&lt;font face=&quot;JetBrains Mono&quot; style=&quot;font-size: 12px;&quot;&gt;if (j&amp;nbsp; ==&amp;nbsp; -1)&lt;/font&gt;" style="edgeLabel;html=1;align=center;verticalAlign=middle;resizable=0;points=[];" vertex="1" connectable="0" parent="fkbE9CXmydv-zeSzXHjK-76">
          <mxGeometry x="0.7323" relative="1" as="geometry">
            <mxPoint y="1" as="offset" />
          </mxGeometry>
        </mxCell>
        <mxCell id="fkbE9CXmydv-zeSzXHjK-77" style="edgeStyle=orthogonalEdgeStyle;rounded=0;orthogonalLoop=1;jettySize=auto;html=1;" edge="1" parent="1" source="fkbE9CXmydv-zeSzXHjK-70" target="fkbE9CXmydv-zeSzXHjK-75">
          <mxGeometry relative="1" as="geometry" />
        </mxCell>
        <mxCell id="fkbE9CXmydv-zeSzXHjK-80" value="&lt;font face=&quot;JetBrains Mono&quot;&gt;else&lt;/font&gt;" style="edgeLabel;html=1;align=center;verticalAlign=middle;resizable=0;points=[];" vertex="1" connectable="0" parent="fkbE9CXmydv-zeSzXHjK-77">
          <mxGeometry x="0.7588" y="-1" relative="1" as="geometry">
            <mxPoint as="offset" />
          </mxGeometry>
        </mxCell>
        <mxCell id="fkbE9CXmydv-zeSzXHjK-70" value="&lt;font face=&quot;JetBrains Mono&quot;&gt;S (WHEEL_RADIUS, * 3.5, WHEEL_WIDTH * 0.3, WHEEL_RADIUS * 3.5)&lt;/font&gt;" style="rounded=0;whiteSpace=wrap;html=1;" vertex="1" parent="1">
          <mxGeometry x="661.24" y="1500" width="360" height="40" as="geometry" />
        </mxCell>
        <mxCell id="fkbE9CXmydv-zeSzXHjK-74" value="&lt;font face=&quot;JetBrains Mono&quot;&gt;CUBE&lt;/font&gt;" style="rounded=1;whiteSpace=wrap;html=1;" vertex="1" parent="1">
          <mxGeometry x="680" y="1620" width="98.76" height="40" as="geometry" />
        </mxCell>
        <mxCell id="fkbE9CXmydv-zeSzXHjK-75" value="&lt;div&gt;&lt;font face=&quot;JetBrains Mono&quot;&gt;SPHERE&lt;/font&gt;&lt;/div&gt;" style="rounded=1;whiteSpace=wrap;html=1;" vertex="1" parent="1">
          <mxGeometry x="921.24" y="1620" width="111.24" height="40" as="geometry" />
        </mxCell>
        <mxCell id="fkbE9CXmydv-zeSzXHjK-85" style="edgeStyle=orthogonalEdgeStyle;rounded=0;orthogonalLoop=1;jettySize=auto;html=1;entryX=0.5;entryY=0;entryDx=0;entryDy=0;" edge="1" parent="1" source="fkbE9CXmydv-zeSzXHjK-81" target="fkbE9CXmydv-zeSzXHjK-84">
          <mxGeometry relative="1" as="geometry" />
        </mxCell>
        <mxCell id="fkbE9CXmydv-zeSzXHjK-81" value="&lt;font face=&quot;JetBrains Mono&quot;&gt;T (-TRUCK_LENGTH/3, TRUCK_WIDTH/2, 0)&lt;/font&gt;" style="rounded=0;whiteSpace=wrap;html=1;" vertex="1" parent="1">
          <mxGeometry x="1285" y="1220" width="270" height="40" as="geometry" />
        </mxCell>
        <mxCell id="fkbE9CXmydv-zeSzXHjK-87" style="edgeStyle=orthogonalEdgeStyle;rounded=0;orthogonalLoop=1;jettySize=auto;html=1;entryX=0.5;entryY=0;entryDx=0;entryDy=0;" edge="1" parent="1" source="fkbE9CXmydv-zeSzXHjK-84" target="fkbE9CXmydv-zeSzXHjK-86">
          <mxGeometry relative="1" as="geometry" />
        </mxCell>
        <mxCell id="fkbE9CXmydv-zeSzXHjK-84" value="&lt;font face=&quot;JetBrains Mono&quot;&gt;S (TRUCK_LENGTH * 2/3, TRUCK_WIDTH/2, 0)&lt;/font&gt;" style="rounded=0;whiteSpace=wrap;html=1;" vertex="1" parent="1">
          <mxGeometry x="1285" y="1300" width="270" height="40" as="geometry" />
        </mxCell>
        <mxCell id="fkbE9CXmydv-zeSzXHjK-89" style="edgeStyle=orthogonalEdgeStyle;rounded=0;orthogonalLoop=1;jettySize=auto;html=1;" edge="1" parent="1" source="fkbE9CXmydv-zeSzXHjK-86" target="fkbE9CXmydv-zeSzXHjK-88">
          <mxGeometry relative="1" as="geometry" />
        </mxCell>
        <mxCell id="fkbE9CXmydv-zeSzXHjK-86" value="&lt;font face=&quot;JetBrains Mono&quot;&gt;Rz(90)&lt;/font&gt;" style="rounded=0;whiteSpace=wrap;html=1;" vertex="1" parent="1">
          <mxGeometry x="1360" y="1380" width="120" height="40" as="geometry" />
        </mxCell>
        <mxCell id="fkbE9CXmydv-zeSzXHjK-88" value="&lt;div&gt;&lt;font face=&quot;JetBrains Mono&quot;&gt;CYLINDER&lt;/font&gt;&lt;/div&gt;" style="rounded=1;whiteSpace=wrap;html=1;" vertex="1" parent="1">
          <mxGeometry x="1360" y="1460" width="120" height="40" as="geometry" />
        </mxCell>
        <mxCell id="fkbE9CXmydv-zeSzXHjK-94" style="edgeStyle=orthogonalEdgeStyle;rounded=0;orthogonalLoop=1;jettySize=auto;html=1;" edge="1" parent="1" source="fkbE9CXmydv-zeSzXHjK-91" target="fkbE9CXmydv-zeSzXHjK-93">
          <mxGeometry relative="1" as="geometry" />
        </mxCell>
        <mxCell id="fkbE9CXmydv-zeSzXHjK-91" value="&lt;font face=&quot;JetBrains Mono&quot;&gt;T (0, WHEEL_RADIUS *1,15, 0)&lt;/font&gt;" style="rounded=0;whiteSpace=wrap;html=1;" vertex="1" parent="1">
          <mxGeometry x="1720" y="1020" width="210" height="40" as="geometry" />
        </mxCell>
        <mxCell id="fkbE9CXmydv-zeSzXHjK-96" style="edgeStyle=orthogonalEdgeStyle;rounded=0;orthogonalLoop=1;jettySize=auto;html=1;entryX=0.5;entryY=0;entryDx=0;entryDy=0;" edge="1" parent="1" source="fkbE9CXmydv-zeSzXHjK-93" target="fkbE9CXmydv-zeSzXHjK-95">
          <mxGeometry relative="1" as="geometry" />
        </mxCell>
        <mxCell id="fkbE9CXmydv-zeSzXHjK-93" value="&lt;font face=&quot;JetBrains Mono&quot;&gt;S (WHEEL_RADIUS *2.2, WHEEL_RADIUS *0.2, WHEEL_WIDTH * 0.5)&lt;/font&gt;" style="rounded=0;whiteSpace=wrap;html=1;" vertex="1" parent="1">
          <mxGeometry x="1610" y="1120" width="430" height="40" as="geometry" />
        </mxCell>
        <mxCell id="fkbE9CXmydv-zeSzXHjK-95" value="&lt;font face=&quot;JetBrains Mono&quot;&gt;CUBE&lt;/font&gt;" style="rounded=1;whiteSpace=wrap;html=1;" vertex="1" parent="1">
          <mxGeometry x="1765" y="1200" width="120" height="40" as="geometry" />
        </mxCell>
      </root>
    </mxGraphModel>
  </diagram>
</mxfile>
